<?xml version="1.0" standalone="no"?><svg xmlns="http://www.w3.org/2000/svg" viewBox="0 0 1440 320"><path fill="#273036" fill-opacity="1" d="M0,96L16,96C32,96,64,96,96,112C128,128,160,160,192,181.3C224,203,256,213,288,186.7C320,160,352,96,384,69.3C416,43,448,53,480,85.3C512,117,544,171,576,197.3C608,224,640,224,672,213.3C704,203,736,181,768,154.7C800,128,832,96,864,85.3C896,75,928,85,960,85.3C992,85,1024,75,1056,80C1088,85,1120,107,1152,112C1184,117,1216,107,1248,101.3C1280,96,1312,96,1344,122.7C1376,149,1408,203,1424,229.3L1440,256L1440,320L1424,320C1408,320,1376,320,1344,320C1312,320,1280,320,1248,320C1216,320,1184,320,1152,320C1120,320,1088,320,1056,320C1024,320,992,320,960,320C928,320,896,320,864,320C832,320,800,320,768,320C736,320,704,320,672,320C640,320,608,320,576,320C544,320,512,320,480,320C448,320,416,320,384,320C352,320,320,320,288,320C256,320,224,320,192,320C160,320,128,320,96,320C64,320,32,320,16,320L0,320Z"></path></svg>